HIERARCHY
ROOT Root
{
  OFFSET 0.0 0.0 0.0
  CHANNELS 6 Xposition Yposition Zposition Zrotation Yrotation Xrotation
  JOINT Hips
  {
    OFFSET 0.0 100.0 0.0
    CHANNELS 6 Xposition Yposition Zposition Zrotation Yrotation Xrotation
    JOINT Spine1
    {
      OFFSET 5.003913 -0.037094 -0.013727
      CHANNELS 3 Zrotation Yrotation Xrotation
      JOINT Spine2
      {
        OFFSET 7.125363 -1e-06 0.0
        CHANNELS 3 Zrotation Yrotation Xrotation
        JOINT Chest
        {
          OFFSET 7.594027 1e-06 0.0
          CHANNELS 3 Zrotation Yrotation Xrotation
          JOINT Neck1
          {
            OFFSET 26.313086 -0.460272 -0.181672
            CHANNELS 3 Zrotation Yrotation Xrotation
            JOINT Neck2
            {
              OFFSET 8.045911 0.0 0.0
              CHANNELS 3 Zrotation Yrotation Xrotation
              JOINT Head
              {
                OFFSET 6.432774 0.0 0.0
                CHANNELS 3 Zrotation Yrotation Xrotation
                JOINT HeadEnd
                {
                  OFFSET 16.169773 0.06451 0.00362
                  CHANNELS 3 Zrotation Yrotation Xrotation
                }
                JOINT Jaw
                {
                  OFFSET 0.108741 3.12938 0.002639
                  CHANNELS 3 Zrotation Yrotation Xrotation
                }
                JOINT LeftEye
                {
                  OFFSET 4.45173 8.166359 3.206392
                  CHANNELS 3 Zrotation Yrotation Xrotation
                }
                JOINT RightEye
                {
                  OFFSET 4.436895 8.135758 -3.222429
                  CHANNELS 3 Zrotation Yrotation Xrotation
                }
              }
            }
          }
          JOINT LeftShoulder
          {
            OFFSET 23.218927 5.195579 1.621656
            CHANNELS 3 Zrotation Yrotation Xrotation
            JOINT LeftArm
            {
              OFFSET 15.902118 2e-06 -2e-06
              CHANNELS 3 Zrotation Yrotation Xrotation
              JOINT LeftForeArm
              {
                OFFSET 28.739307 0.0 -1e-06
                CHANNELS 3 Zrotation Yrotation Xrotation
                JOINT LeftHand
                {
                  OFFSET 27.093981 -4e-06 0.0
                  CHANNELS 3 Zrotation Yrotation Xrotation
                  JOINT LeftHandThumb1
                  {
                    OFFSET 2.276781 3.380274 0.83384
                    CHANNELS 3 Zrotation Yrotation Xrotation
                    JOINT LeftHandThumb2
                    {
                      OFFSET 4.705309 -1e-06 -1e-06
                      CHANNELS 3 Zrotation Yrotation Xrotation
                      JOINT LeftHandThumb3
                      {
                        OFFSET 2.798515 0.0 3e-06
                        CHANNELS 3 Zrotation Yrotation Xrotation
                        JOINT LeftHandThumbEnd
                        {
                          OFFSET 3.180793 4e-06 -4e-06
                          CHANNELS 3 Zrotation Yrotation Xrotation
                        }
                      }
                    }
                  }
                  JOINT LeftHandIndex1
                  {
                    OFFSET 3.247786 2.352677 0.137192
                    CHANNELS 3 Zrotation Yrotation Xrotation
                    JOINT LeftHandIndex2
                    {
                      OFFSET 6.367095 1e-06 0.0
                      CHANNELS 3 Zrotation Yrotation Xrotation
                      JOINT LeftHandIndex3
                      {
                        OFFSET 3.662364 0.0 0.0
                        CHANNELS 3 Zrotation Yrotation Xrotation
                        JOINT LeftHandIndex4
                        {
                          OFFSET 2.329242 4e-06 -4e-06
                          CHANNELS 3 Zrotation Yrotation Xrotation
                          JOINT LeftHandIndexEnd
                          {
                            OFFSET 2.767823 1e-06 0.0
                            CHANNELS 3 Zrotation Yrotation Xrotation
                          }
                        }
                      }
                    }
                  }
                  JOINT LeftHandMiddle1
                  {
                    OFFSET 3.163612 0.945023 -0.406112
                    CHANNELS 3 Zrotation Yrotation Xrotation
                    JOINT LeftHandMiddle2
                    {
                      OFFSET 6.276789 3e-06 0.0
                      CHANNELS 3 Zrotation Yrotation Xrotation
                      JOINT LeftHandMiddle3
                      {
                        OFFSET 4.35652 -1e-06 4e-06
                        CHANNELS 3 Zrotation Yrotation Xrotation
                        JOINT LeftHandMiddle4
                        {
                          OFFSET 2.996877 0.0 8e-06
                          CHANNELS 3 Zrotation Yrotation Xrotation
                          JOINT LeftHandMiddleEnd
                          {
                            OFFSET 2.323256 3e-06 -4e-06
                            CHANNELS 3 Zrotation Yrotation Xrotation
                          }
                        }
                      }
                    }
                  }
                  JOINT LeftHandRing1
                  {
                    OFFSET 2.882606 -0.309162 0.107445
                    CHANNELS 3 Zrotation Yrotation Xrotation
                    JOINT LeftHandRing2
                    {
                      OFFSET 6.033198 0.0 4e-06
                      CHANNELS 3 Zrotation Yrotation Xrotation
                      JOINT LeftHandRing3
                      {
                        OFFSET 4.350578 3e-06 0.0
                        CHANNELS 3 Zrotation Yrotation Xrotation
                        JOINT LeftHandRing4
                        {
                          OFFSET 2.651321 2e-06 -7e-06
                          CHANNELS 3 Zrotation Yrotation Xrotation
                          JOINT LeftHandRingEnd
                          {
                            OFFSET 1.937663 1e-06 -4e-06
                            CHANNELS 3 Zrotation Yrotation Xrotation
                          }
                        }
                      }
                    }
                  }
                  JOINT LeftHandPinky1
                  {
                    OFFSET 2.865315 -1.525436 0.575687
                    CHANNELS 3 Zrotation Yrotation Xrotation
                    JOINT LeftHandPinky2
                    {
                      OFFSET 5.54936 1e-06 -8e-06
                      CHANNELS 3 Zrotation Yrotation Xrotation
                      JOINT LeftHandPinky3
                      {
                        OFFSET 3.070974 0.0 -4e-06
                        CHANNELS 3 Zrotation Yrotation Xrotation
                        JOINT LeftHandPinky4
                        {
                          OFFSET 1.549672 1e-06 0.0
                          CHANNELS 3 Zrotation Yrotation Xrotation
                          JOINT LeftHandPinkyEnd
                          {
                            OFFSET 1.952123 0.0 0.0
                            CHANNELS 3 Zrotation Yrotation Xrotation
                          }
                        }
                      }
                    }
                  }
                }
              }
            }
          }
          JOINT RightShoulder
          {
            OFFSET 23.161716 5.296122 -1.380114
            CHANNELS 3 Zrotation Yrotation Xrotation
            JOINT RightArm
            {
              OFFSET -16.027195 -2e-06 1.1e-05
              CHANNELS 3 Zrotation Yrotation Xrotation
              JOINT RightForeArm
              {
                OFFSET -28.736639 4e-06 2e-06
                CHANNELS 3 Zrotation Yrotation Xrotation
                JOINT RightHand
                {
                  OFFSET -27.133619 6e-06 0.0
                  CHANNELS 3 Zrotation Yrotation Xrotation
                  JOINT RightHandThumb1
                  {
                    OFFSET -2.274328 -3.351035 -0.83067
                    CHANNELS 3 Zrotation Yrotation Xrotation
                    JOINT RightHandThumb2
                    {
                      OFFSET -4.703594 -3e-06 2e-06
                      CHANNELS 3 Zrotation Yrotation Xrotation
                      JOINT RightHandThumb3
                      {
                        OFFSET -2.794935 -4e-06 -3e-06
                        CHANNELS 3 Zrotation Yrotation Xrotation
                        JOINT RightHandThumbEnd
                        {
                          OFFSET -3.183852 4e-06 1e-06
                          CHANNELS 3 Zrotation Yrotation Xrotation
                        }
                      }
                    }
                  }
                  JOINT RightHandIndex1
                  {
                    OFFSET -3.253496 -2.33755 -0.127667
                    CHANNELS 3 Zrotation Yrotation Xrotation
                    JOINT RightHandIndex2
                    {
                      OFFSET -6.344434 0.0 0.0
                      CHANNELS 3 Zrotation Yrotation Xrotation
                      JOINT RightHandIndex3
                      {
                        OFFSET -3.654871 0.0 -8e-06
                        CHANNELS 3 Zrotation Yrotation Xrotation
                        JOINT RightHandIndex4
                        {
                          OFFSET -2.327586 -1e-06 0.0
                          CHANNELS 3 Zrotation Yrotation Xrotation
                          JOINT RightHandIndexEnd
                          {
                            OFFSET -2.770001 3e-06 8e-06
                            CHANNELS 3 Zrotation Yrotation Xrotation
                          }
                        }
                      }
                    }
                  }
                  JOINT RightHandMiddle1
                  {
                    OFFSET -3.168223 -0.944764 0.411762
                    CHANNELS 3 Zrotation Yrotation Xrotation
                    JOINT RightHandMiddle2
                    {
                      OFFSET -6.266691 -1e-06 -4e-06
                      CHANNELS 3 Zrotation Yrotation Xrotation
                      JOINT RightHandMiddle3
                      {
                        OFFSET -4.348901 0.0 0.0
                        CHANNELS 3 Zrotation Yrotation Xrotation
                        JOINT RightHandMiddle4
                        {
                          OFFSET -3.00024 2e-06 -4e-06
                          CHANNELS 3 Zrotation Yrotation Xrotation
                          JOINT RightHandMiddleEnd
                          {
                            OFFSET -2.321477 -4e-06 -4e-06
                            CHANNELS 3 Zrotation Yrotation Xrotation
                          }
                        }
                      }
                    }
                  }
                  JOINT RightHandRing1
                  {
                    OFFSET -2.885654 0.293261 -0.119232
                    CHANNELS 3 Zrotation Yrotation Xrotation
                    JOINT RightHandRing2
                    {
                      OFFSET -6.032835 -1e-06 -4e-06
                      CHANNELS 3 Zrotation Yrotation Xrotation
                      JOINT RightHandRing3
                      {
                        OFFSET -4.33881 0.0 -4e-06
                        CHANNELS 3 Zrotation Yrotation Xrotation
                        JOINT RightHandRing4
                        {
                          OFFSET -2.654903 -4e-06 -4e-06
                          CHANNELS 3 Zrotation Yrotation Xrotation
                          JOINT RightHandRingEnd
                          {
                            OFFSET -1.935122 0.0 4e-06
                            CHANNELS 3 Zrotation Yrotation Xrotation
                          }
                        }
                      }
                    }
                  }
                  JOINT RightHandPinky1
                  {
                    OFFSET -2.866241 1.503904 -0.60527
                    CHANNELS 3 Zrotation Yrotation Xrotation
                    JOINT RightHandPinky2
                    {
                      OFFSET -5.553177 -2e-06 0.0
                      CHANNELS 3 Zrotation Yrotation Xrotation
                      JOINT RightHandPinky3
                      {
                        OFFSET -3.062664 -1e-06 -4e-06
                        CHANNELS 3 Zrotation Yrotation Xrotation
                        JOINT RightHandPinky4
                        {
                          OFFSET -1.546529 2e-06 4e-06
                          CHANNELS 3 Zrotation Yrotation Xrotation
                          JOINT RightHandPinkyEnd
                          {
                            OFFSET -1.952341 0.0 -4e-06
                            CHANNELS 3 Zrotation Yrotation Xrotation
                          }
                        }
                      }
                    }
                  }
                }
              }
            }
          }
        }
      }
    }
    JOINT LeftLeg
    {
      OFFSET -8.443107 2.567604 10.043214
      CHANNELS 3 Zrotation Yrotation Xrotation
      JOINT LeftShin
      {
        OFFSET 43.229198 1e-06 -1e-06
        CHANNELS 3 Zrotation Yrotation Xrotation
        JOINT LeftFoot
        {
          OFFSET 42.298611 1e-06 1e-06
          CHANNELS 3 Zrotation Yrotation Xrotation
          JOINT LeftToeBase
          {
            OFFSET 14.165858 1e-06 0.0
            CHANNELS 3 Zrotation Yrotation Xrotation
            JOINT LeftToeEnd
            {
              OFFSET 6.7141 -0.234461 0.0
              CHANNELS 3 Zrotation Yrotation Xrotation
            }
          }
        }
      }
    }
    JOINT RightLeg
    {
      OFFSET -8.303923 2.592729 -10.047278
      CHANNELS 3 Zrotation Yrotation Xrotation
      JOINT RightShin
      {
        OFFSET -43.369682 0.0 1e-06
        CHANNELS 3 Zrotation Yrotation Xrotation
        JOINT RightFoot
        {
          OFFSET -42.260784 4e-06 2e-06
          CHANNELS 3 Zrotation Yrotation Xrotation
          JOINT RightToeBase
          {
            OFFSET -14.222245 -2e-06 -1e-06
            CHANNELS 3 Zrotation Yrotation Xrotation
            JOINT RightToeEnd
            {
              OFFSET -6.660062 0.232574 -2e-06
              CHANNELS 3 Zrotation Yrotation Xrotation
            }
          }
        }
      }
    }
  }
}
MOTION
Frames: 4
Frame Time: 0.03333333333333333
0.0 0.0 0.0 0.0 -0.0 0.0 -7.923445 47.229759 237.055084 95.424126 -47.903172 87.918915 18.685923 -3.41829 0.863968 -5.064787 -0.939494 0.847413 19.451336 -6.888889 -3.198966 31.090647 -2.256135 0.717719 -2.288299 0.663103 -2.999719 -16.255754 -3.480499 -3.920218 6e-06 0.0 0.0 -0.284938 0.19028 0.009713 -0.711042 0.352295 -0.094078 -0.549896 0.014142 0.109056 49.347382 -82.300606 -38.623852 72.87397 -25.972855 -42.96619 23.275288 0.811728 0.009813 58.832703 69.962082 61.036892 17.636641 -26.322721 52.411198 -19.466667 -14.395594 29.410395 -1e-06 -8.774824 -4e-06 15.208039 -18.035463 6.495087 -0.609777 -1.795656 -3.889328 -4.807088 -11.046813 -2.937853 4e-06 -20.976023 -4e-06 -5.019969 -25.033562 -4.031884 6e-06 0.0 -0.0 -10.63454 -5.686974 -3.565589 10.57328 -17.922958 -3.113902 4e-06 -13.821213 -1e-06 -0.50177 -31.181511 -4.027024 -11.667177 -59.421478 7.796774 -13.982716 -7.150202 -2.875044 13.772732 -8.401495 -3.218243 0.347734 -34.211559 0.771653 -0.963028 -17.733372 2.621018 0.0 0.0 0.0 -17.346424 -20.095226 -4.201786 21.757566 -1.638372 3.866432 1e-06 -6.338822 -3e-06 -1.697587 -22.591749 -6.194012 -0.0 -3e-06 -3e-06 -162.474869 -68.825523 -11.870965 70.706047 -0.374963 -42.609409 13.611608 -1.036021 -0.266696 1.624481 62.684143 8.026265 22.182127 -20.375893 49.933323 -16.701813 -16.743528 28.47653 -2e-06 -12.690602 -3e-06 16.528942 -17.634251 3.005389 -0.10592 -1.513857 -4.275881 -5.039042 -5.612872 -2.953557 3e-06 -11.020525 -2e-06 -6.1113 -15.895334 -3.840473 -1e-06 -2e-06 -1e-06 -10.283372 -5.680289 -4.341839 11.028295 -11.302406 -2.372632 -1.38427 -14.238581 -6.320122 -0.625439 -26.924191 -3.827601 -4.475248 -51.439182 -3.564322 -13.708527 -7.363478 -3.720941 18.141151 -14.05274 -3.242673 6e-06 -18.787273 -2e-06 -0.429711 -8.456041 2.555503 -0.0 1e-06 -0.0 -15.923539 -20.094486 -5.473586 30.419222 -7.190828 1.735929 3e-06 -8.162929 -1e-06 -1.861902 -22.861467 -6.167943 1e-06 -3e-06 -2e-06 112.894302 2.710457 -1.930083 119.605682 1.965178 0.816115 -34.846611 16.129503 -0.28467 -0.471909 0.91025 2.348195 -0.999999 -0.0 -0.0 -9.821281 -9.67726 -5.686068 55.137413 -3.855449 1.96896 -24.499289 15.991249 -10.321429 3.733319 0.204843 2.084153 -1.000003 0.0 -0.0 
0.0 0.0 0.0 0.0 -0.0 0.0 -7.972086 47.546303 240.148972 95.556885 -49.613029 88.785477 18.100851 -3.070949 0.749983 -5.324187 -1.08711 0.452452 19.422588 -6.516518 -3.933635 30.625841 -0.936194 0.99806 -2.280037 0.362615 -3.363905 -16.055937 -2.905169 -4.086024 5e-06 -1e-06 0.0 -0.276679 0.226538 0.014794 -0.728465 0.374176 -0.103206 -0.611786 0.069613 0.130454 56.617249 -82.096992 -46.003426 71.062843 -28.281643 -43.33075 25.060654 0.74436 -0.057261 60.985672 70.097557 63.931973 17.636621 -26.322721 52.411194 -19.46666 -14.395594 29.410395 1e-06 -8.774821 -2e-06 15.495625 -18.082415 6.37031 -0.609777 -1.795654 -3.889327 -4.807089 -11.046809 -2.937853 4e-06 -20.976019 -2e-06 -5.019967 -25.033558 -4.031883 6e-06 -0.0 -0.0 -10.634535 -5.68697 -3.565588 10.573275 -17.922951 -3.113903 3e-06 -13.821206 -0.0 -0.501773 -31.181498 -4.027023 -11.659423 -59.689934 7.798572 -13.982712 -7.150199 -2.875042 13.772728 -8.401489 -3.218243 0.347735 -34.211544 0.771651 -0.963027 -17.733364 2.621017 0.0 0.0 1e-06 -17.346418 -20.095217 -4.201784 21.757555 -1.638374 3.866428 1e-06 -6.338822 -2e-06 -1.697588 -22.591742 -6.194009 -0.0 -4e-06 -2e-06 -167.148804 -70.046127 -7.68619 73.850876 -1.511606 -41.600327 14.294678 -1.106953 -0.223377 2.6363 66.749779 8.825968 22.182119 -20.375895 49.933323 -16.701809 -16.74353 28.476528 -3e-06 -12.6906 -1e-06 16.114384 -17.662277 3.15761 -0.105919 -1.513857 -4.275881 -5.039041 -5.61287 -2.953557 5e-06 -11.020523 -2e-06 -6.111298 -15.895328 -3.84047 1e-06 -0.0 -1e-06 -10.283371 -5.680286 -4.341839 11.028294 -11.302404 -2.372632 -1.38427 -14.238577 -6.32012 -0.625439 -26.924187 -3.8276 -4.328648 -51.100773 -3.793668 -13.708525 -7.363475 -3.720939 18.14115 -14.052739 -3.242674 6e-06 -18.78727 -2e-06 -0.429711 -8.456043 2.555504 -0.0 -1e-06 0.0 -15.923532 -20.094482 -5.473586 30.41921 -7.190826 1.735927 3e-06 -8.162921 1e-06 -1.861902 -22.861467 -6.167942 0.0 -4e-06 -1e-06 114.535675 3.824315 -1.245265 116.877487 1.818817 0.754792 -35.128624 16.24872 0.224176 -0.520851 0.880801 2.34777 -1.0 -1e-06 -0.0 -10.20085 -10.340012 -7.175378 54.169701 -4.165504 2.203478 -26.423527 16.14422 -11.058931 3.723728 0.141504 2.117134 -1.000003 0.0 -0.0 
0.0 0.0 0.0 0.0 -0.0 0.0 -8.138199 48.181362 242.858963 94.751839 -50.580639 89.648842 17.850887 -2.584618 0.722861 -5.364333 -1.066224 0.535731 19.50028 -5.872982 -3.957256 30.017036 0.211405 1.247568 -2.31085 -0.010213 -3.655419 -15.689265 -2.212439 -4.109406 6e-06 0.0 0.0 -0.267966 0.212494 0.027174 -0.720513 0.375905 -0.081835 -0.646889 0.047784 0.133225 63.114178 -82.237473 -52.929943 70.276093 -29.646572 -43.402657 26.063831 0.844509 -0.016459 57.507435 69.752724 60.165783 17.636623 -26.322737 52.411194 -19.466654 -14.395597 29.410385 2e-06 -8.774823 -3e-06 15.371409 -18.043652 6.075998 -0.609776 -1.795654 -3.889328 -4.80709 -11.046809 -2.93785 0.0 -20.976015 -0.0 -5.01997 -25.033554 -4.031879 6e-06 -0.0 1e-06 -10.634533 -5.686969 -3.565586 10.573271 -17.922947 -3.113898 0.0 -13.821209 1e-06 -0.501781 -31.181498 -4.027016 -11.487633 -59.246811 7.177787 -13.982714 -7.150198 -2.875042 13.77273 -8.401491 -3.218241 0.347732 -34.211552 0.771656 -0.96303 -17.733366 2.621018 -0.0 0.0 1e-06 -17.346416 -20.095217 -4.20178 21.757555 -1.638371 3.866426 -0.0 -6.338825 -1e-06 -1.697591 -22.591738 -6.194002 -1e-06 -4e-06 -1e-06 -167.403778 -70.875183 -7.299988 75.110565 -2.057376 -40.571266 14.077188 -1.255572 -0.191216 4.567615 70.306427 10.605009 22.182114 -20.375898 49.933319 -16.701815 -16.743528 28.476532 -2e-06 -12.690601 -1e-06 15.66545 -17.733913 3.41987 -0.105918 -1.513856 -4.275882 -5.039042 -5.612871 -2.953556 5e-06 -11.020528 -1e-06 -6.1113 -15.895338 -3.840469 -0.0 0.0 -1e-06 -10.283369 -5.680288 -4.341839 11.028295 -11.302407 -2.372633 -1.384269 -14.238581 -6.320121 -0.625439 -26.924194 -3.8276 -4.244421 -50.592789 -3.835776 -13.708524 -7.363477 -3.72094 18.141148 -14.05274 -3.242674 5e-06 -18.787271 -2e-06 -0.429712 -8.456043 2.555502 -0.0 -1e-06 1e-06 -15.923536 -20.094484 -5.473584 30.419214 -7.190829 1.735926 2e-06 -8.162926 -0.0 -1.861903 -22.861481 -6.167945 1e-06 -2e-06 -1e-06 116.81797 3.812134 -0.295323 113.46286 1.566574 0.700031 -34.398792 16.983519 0.531932 -1.162964 0.913709 2.310294 -0.999999 0.0 -0.0 -12.192751 -10.056142 -6.7235 56.686584 -4.095344 2.001418 -29.781654 15.971947 -11.862867 3.125204 0.194112 2.097111 -1.000001 0.0 -0.0 
0.0 0.0 0.0 0.0 -0.0 0.0 -8.290755 48.980804 245.175766 94.039032 -50.921272 90.266823 17.922396 -2.08534 0.650163 -5.405411 -1.033921 0.613431 19.55727 -5.173765 -3.429878 29.452774 0.837635 1.391716 -2.36537 -0.141391 -3.603015 -15.549069 -1.785906 -4.311844 6e-06 -0.0 0.0 -0.259144 0.220055 0.019032 -0.729215 0.433746 -0.102505 -0.698809 0.011396 0.139784 66.557205 -82.492302 -56.585682 70.427856 -30.301537 -44.469604 27.554312 1.215174 0.033086 52.089298 68.738808 53.433342 17.636633 -26.322735 52.411201 -19.466665 -14.3956 29.410395 -1e-06 -8.774824 -3e-06 15.250706 -18.019001 6.01399 -0.609776 -1.795655 -3.889326 -4.807091 -11.046813 -2.937851 5e-06 -20.976019 -3e-06 -5.019968 -25.03356 -4.031882 6e-06 0.0 -1e-06 -10.634534 -5.686972 -3.565587 10.573278 -17.922958 -3.113901 3e-06 -13.821213 -1e-06 -0.501774 -31.181505 -4.027017 -11.271895 -59.109211 6.988385 -13.982714 -7.1502 -2.875041 13.772733 -8.401493 -3.218241 0.347735 -34.211555 0.771653 -0.963027 -17.733372 2.621019 -0.0 -0.0 1e-06 -17.346418 -20.095221 -4.20178 21.757561 -1.638378 3.866426 -0.0 -6.338827 -1e-06 -1.697585 -22.591749 -6.194008 -0.0 -3e-06 -2e-06 -165.223923 -71.454643 -9.007802 75.543457 -2.63034 -40.481655 13.33751 -1.365436 -0.191281 10.293548 72.971054 16.303087 22.182112 -20.375898 49.933334 -16.701817 -16.74353 28.476542 -3e-06 -12.690603 -1e-06 15.382268 -17.575811 3.507071 -0.105919 -1.513857 -4.275883 -5.039041 -5.612873 -2.953557 4e-06 -11.020525 -2e-06 -6.1113 -15.895334 -3.840472 0.0 -1e-06 1e-06 -10.283372 -5.680289 -4.341839 11.028296 -11.302407 -2.372635 -1.384269 -14.238583 -6.320123 -0.625437 -26.924192 -3.827603 -4.142094 -50.188049 -3.785808 -13.708527 -7.363478 -3.720939 18.141153 -14.05274 -3.242677 6e-06 -18.787271 -2e-06 -0.429712 -8.456043 2.555504 -0.0 -1e-06 -0.0 -15.923539 -20.094486 -5.473586 30.419218 -7.190826 1.735924 2e-06 -8.162922 0.0 -1.861902 -22.861469 -6.167943 -0.0 -3e-06 -1e-06 119.381927 3.453188 0.168307 109.99781 1.323271 0.656375 -33.61253 18.270687 0.865843 -1.725679 0.967775 2.203788 -0.999999 -0.0 -0.0 -15.518478 -9.708773 -5.794881 61.870682 -4.008476 1.585466 -32.655499 15.870822 -11.588412 2.948624 0.147122 2.099753 -1.000002 -1e-06 -0.0 
